<svg width="18" height="16" viewBox="0 0 18 16" fill="none" xmlns="http://www.w3.org/2000/svg">
<path d="M15.7462 7.16473V13.167C15.7462 13.6457 15.556 14.1049 15.2175 14.4434C14.8789 14.782 14.4197 14.9722 13.941 14.9722H4.3058C3.82703 14.9722 3.3679 14.782 3.02936 14.4434C2.69083 14.1049 2.50061 13.6457 2.50061 13.167V9.36255" stroke="currentColor" stroke-width="1.5" stroke-linecap="round" stroke-linejoin="round"/>
<path d="M3.46186 1.00001C3.18176 0.999863 2.90854 1.08659 2.6798 1.24825C2.45106 1.4099 2.27807 1.63852 2.18471 1.9026L1.11062 5.01655C0.713475 6.15382 1.41752 7.16021 2.71274 7.16021C3.18296 7.14863 3.64325 7.02257 4.05374 6.79294C4.46424 6.56331 4.81255 6.23705 5.0685 5.84243C5.20151 6.24071 5.46067 6.58479 5.80676 6.82258C6.15285 7.06036 6.56702 7.17889 6.98651 7.16021C7.18566 6.7642 7.4909 6.43132 7.86823 6.19871C8.24556 5.96611 8.68013 5.84294 9.1234 5.84294C9.56666 5.84294 10.0012 5.96611 10.3785 6.19871C10.7558 6.43132 11.0611 6.7642 11.2603 7.16021V7.16021C11.679 7.17789 12.0922 7.0589 12.4373 6.82119C12.7825 6.58348 13.041 6.23994 13.1738 5.84243C13.431 6.23686 13.7802 6.56288 14.1914 6.79243C14.6026 7.02199 15.0633 7.1482 15.5341 7.16021C16.8293 7.16021 17.5288 6.15382 17.1362 5.01655L16.0621 1.9026C15.9685 1.6378 15.7948 1.40866 15.5652 1.24694C15.3355 1.08522 15.0613 0.998927 14.7804 1.00001H3.46186Z" stroke="currentColor" stroke-width="1.5" stroke-linecap="round" stroke-linejoin="round"/>
<path d="M11.0707 14.9722H7.19861V11.4701C7.19861 10.983 7.3921 10.5158 7.73656 10.1713C8.08102 9.82685 8.54822 9.63333 9.03536 9.63333H9.22041C9.70755 9.63333 10.1747 9.82685 10.5192 10.1713C10.8637 10.5158 11.0572 10.983 11.0572 11.4701L11.0707 14.9722Z" stroke="currentColor" stroke-width="1.5" stroke-linecap="round" stroke-linejoin="round"/>
</svg>
