<svg width="18" height="16" viewBox="0 0 18 16" fill="none" xmlns="http://www.w3.org/2000/svg">
<path fill-rule="evenodd" clip-rule="evenodd" d="M11.6292 1.26076C12.5027 1.60843 12.7699 2.81924 13.1271 3.20843C13.4843 3.59762 13.9955 3.72995 14.2783 3.72995C15.7814 3.72995 17 4.94854 17 6.45081V11.4627C17 13.4778 15.3654 15.1124 13.3503 15.1124H4.64973C2.63373 15.1124 1 13.4778 1 11.4627V6.45081C1 4.94854 2.21859 3.72995 3.72173 3.72995C4.00368 3.72995 4.51481 3.59762 4.87287 3.20843C5.23005 2.81924 5.49643 1.60843 6.36995 1.26076C7.24432 0.913081 10.7557 0.913081 11.6292 1.26076Z" stroke="currentColor" stroke-width="1.5" stroke-linecap="round" stroke-linejoin="round"/>
<path d="M13.7527 5.97314H13.7605" stroke="currentColor" stroke-width="1.5" stroke-linecap="round" stroke-linejoin="round"/>
<path fill-rule="evenodd" clip-rule="evenodd" d="M11.7491 9.11086C11.7491 7.59215 10.5184 6.36145 8.99974 6.36145C7.48104 6.36145 6.25034 7.59215 6.25034 9.11086C6.25034 10.6296 7.48104 11.8603 8.99974 11.8603C10.5184 11.8603 11.7491 10.6296 11.7491 9.11086Z" stroke="currentColor" stroke-width="1.5" stroke-linecap="round" stroke-linejoin="round"/>
</svg>
