<svg width="17" height="17" viewBox="0 0 17 17" fill="none" xmlns="http://www.w3.org/2000/svg">
<path fill-rule="evenodd" clip-rule="evenodd" d="M2.30431 1C1.58423 1 1 1.59405 1 2.32534V3.10537C1 3.64706 1.20599 4.16798 1.57446 4.55981L5.61258 8.8536L5.61436 8.8509C6.39393 9.64899 6.83254 10.7279 6.83254 11.8528V15.6626C6.83254 15.9172 7.09891 16.0798 7.32 15.9597L9.61963 14.7066C9.96679 14.517 10.1834 14.1486 10.1834 13.7487V11.8428C10.1834 10.7242 10.6158 9.64989 11.3883 8.8536L15.4264 4.55981C15.794 4.16798 16 3.64706 16 3.10537V2.32534C16 1.59405 15.4167 1 14.6966 1H2.30431Z" stroke="currentColor" stroke-width="1.5" stroke-linecap="round" stroke-linejoin="round"/>
</svg>
