<svg width="17" height="17" viewBox="0 0 17 17" fill="none" xmlns="http://www.w3.org/2000/svg">
<path d="M14.5 8.5V16H2.50003V8.5" stroke="currentColor" stroke-width="1.4" stroke-linecap="round" stroke-linejoin="round"/>
<path d="M16 4.75H1V8.5H16V4.75Z" stroke="currentColor" stroke-width="1.4" stroke-linecap="round" stroke-linejoin="round"/>
<path d="M8.5 16V4.75" stroke="currentColor" stroke-width="1.4" stroke-linecap="round" stroke-linejoin="round"/>
<path d="M8.49997 4.75H5.12497C4.62769 4.75 4.15077 4.55246 3.79914 4.20083C3.44751 3.84919 3.24997 3.37228 3.24997 2.875C3.24997 2.37772 3.44751 1.90081 3.79914 1.54917C4.15077 1.19754 4.62769 1 5.12497 1C7.74997 1 8.49997 4.75 8.49997 4.75Z" stroke="currentColor" stroke-width="1.4" stroke-linecap="round" stroke-linejoin="round"/>
<path d="M8.5 4.75H11.875C12.3723 4.75 12.8492 4.55246 13.2008 4.20083C13.5525 3.84919 13.75 3.37228 13.75 2.875C13.75 2.37772 13.5525 1.90081 13.2008 1.54917C12.8492 1.19754 12.3723 1 11.875 1C9.25 1 8.5 4.75 8.5 4.75Z" stroke="currentColor" stroke-width="1.4" stroke-linecap="round" stroke-linejoin="round"/>
</svg>
