<svg width="18" height="17" viewBox="0 0 18 17" fill="none" xmlns="http://www.w3.org/2000/svg">
<path fill-rule="evenodd" clip-rule="evenodd" d="M6.92384 11.3525C10.1178 11.3525 12.8477 11.8365 12.8477 13.7698C12.8477 15.7032 10.136 16.201 6.92384 16.201C3.72902 16.201 1 15.7213 1 13.7871C1 11.8529 3.71084 11.3525 6.92384 11.3525Z" stroke="#90969B" stroke-width="1.5" stroke-linecap="round" stroke-linejoin="round"/>
<path fill-rule="evenodd" clip-rule="evenodd" d="M6.92383 8.59311C4.82685 8.59311 3.1264 6.89354 3.1264 4.79656C3.1264 2.69958 4.82685 1 6.92383 1C9.01994 1 10.7204 2.69958 10.7204 4.79656C10.7282 6.88575 9.03986 8.58532 6.95067 8.59311H6.92383Z" stroke="#90969B" stroke-width="1.5" stroke-linecap="round" stroke-linejoin="round"/>
<path d="M12.8906 7.60761C14.2768 7.41281 15.3443 6.22319 15.3469 4.78336C15.3469 3.3643 14.3123 2.18681 12.9556 1.96429" stroke="#90969B" stroke-width="1.5" stroke-linecap="round" stroke-linejoin="round"/>
<path d="M14.7195 10.9416C16.0623 11.1416 17 11.6126 17 12.5823C17 13.2498 16.5584 13.6827 15.845 13.9537" stroke="#90969B" stroke-width="1.5" stroke-linecap="round" stroke-linejoin="round"/>
</svg>
