<svg width="12" height="12" viewBox="0 0 12 12" fill="none" xmlns="http://www.w3.org/2000/svg">
<path d="M9.55008 7.09107C9.3947 7.24165 9.32331 7.45943 9.3587 7.673L9.89203 10.6246C9.93703 10.8748 9.83144 11.1279 9.62207 11.2725C9.4169 11.4225 9.14393 11.4405 8.92016 11.3205L6.26311 9.9347C6.17072 9.88551 6.06813 9.85911 5.96315 9.85611H5.80057C5.74417 9.86451 5.68898 9.88251 5.63859 9.9101L2.98094 11.3025C2.84955 11.3685 2.70077 11.3919 2.55499 11.3685C2.19984 11.3013 1.96287 10.963 2.02106 10.606L2.55499 7.6544C2.59039 7.43903 2.519 7.22006 2.36362 7.06708L0.1973 4.96735C0.0161234 4.79157 -0.0468684 4.52761 0.0359208 4.28944C0.11631 4.05187 0.321483 3.87849 0.569251 3.8395L3.55086 3.40696C3.77763 3.38356 3.97681 3.24558 4.07879 3.0416L5.39262 0.347955C5.42382 0.287962 5.46401 0.23277 5.51261 0.185976L5.5666 0.143981C5.59479 0.112785 5.62719 0.0869886 5.66319 0.0659914L5.72858 0.0419945L5.83056 0H6.08313C6.3087 0.0233969 6.50728 0.158379 6.61106 0.359953L7.94229 3.0416C8.03828 3.23778 8.22485 3.37396 8.44022 3.40696L11.4218 3.8395C11.6738 3.87549 11.8844 4.04947 11.9678 4.28944C12.0464 4.53001 11.9786 4.79397 11.7938 4.96735L9.55008 7.09107Z" fill="#FFB21D"/>
</svg>
