<svg width="180" height="180" viewBox="0 0 180 180" fill="none" xmlns="http://www.w3.org/2000/svg">
<path d="M180 90C180 139.706 139.706 180 90 180C40.2944 180 0 139.706 0 90C0 40.2944 40.2944 0 90 0C139.706 0 180 40.2944 180 90ZM3.6 90C3.6 137.717 42.2826 176.4 90 176.4C137.717 176.4 176.4 137.717 176.4 90C176.4 42.2826 137.717 3.6 90 3.6C42.2826 3.6 3.6 42.2826 3.6 90Z" fill="#D9D9D9"/>
<path d="M90 0C104.203 1.69368e-07 118.204 3.36141 130.859 9.80941C143.514 16.2574 154.463 25.6089 162.812 37.0993C171.16 48.5897 176.67 61.8928 178.892 75.9209C181.114 89.949 179.984 104.304 175.595 117.812C171.206 131.319 163.683 143.597 153.64 153.64C143.597 163.683 131.319 171.206 117.812 175.595C104.304 179.984 89.949 181.114 75.9209 178.892C61.8929 176.67 48.5898 171.16 37.0994 162.812L39.2154 159.899C50.2462 167.913 63.0171 173.203 76.4841 175.336C89.951 177.469 103.732 176.385 116.699 172.171C129.667 167.958 141.453 160.735 151.094 151.094C160.735 141.453 167.958 129.667 172.171 116.699C176.385 103.732 177.469 89.951 175.336 76.4841C173.203 63.0171 167.913 50.2461 159.899 39.2153C151.885 28.1845 141.373 19.2071 129.225 13.017C117.076 6.82696 103.635 3.6 90 3.6V0Z" fill="#0889FF"/>
</svg>
