<svg width="31" height="30" viewBox="0 0 31 30" fill="none" xmlns="http://www.w3.org/2000/svg">
<mask id="mask0_1211_583" style="mask-type:alpha" maskUnits="userSpaceOnUse" x="0" y="0" width="31" height="30">
<path fill-rule="evenodd" clip-rule="evenodd" d="M0 0H30.0024V29.9998H0V0Z" fill="white"/>
</mask>
<g mask="url(#mask0_1211_583)">
<path fill-rule="evenodd" clip-rule="evenodd" d="M13.4168 27.1116C14.3017 27.9756 15.7266 27.9651 16.6056 27.0816L17.6885 26.0017C18.5285 25.1632 19.6894 24.6848 20.8728 24.6848H22.4178C23.6687 24.6848 24.6856 23.6678 24.6856 22.4184V20.875C24.6856 19.6736 25.1506 18.5441 25.9995 17.6937L27.0795 16.6122C27.519 16.1713 27.7544 15.5998 27.7529 14.9938C27.7514 14.3894 27.513 13.8209 27.0825 13.3919L26.001 12.309C25.1506 11.4525 24.6856 10.3246 24.6856 9.12318V7.58277C24.6856 6.33184 23.6687 5.3149 22.4178 5.3149H20.8758C19.6744 5.3149 18.545 4.84842 17.6945 4.00397L16.6116 2.91954C15.7101 2.02709 14.2717 2.03159 13.3913 2.91804L12.3128 3.99947C11.4519 4.84992 10.3225 5.3149 9.12553 5.3149H7.58212C6.33269 5.3164 5.31575 6.33334 5.31575 7.58277V9.12018C5.31575 10.3216 4.84927 11.451 4.00332 12.303L2.93839 13.3694C2.92789 13.3814 2.91739 13.3904 2.90689 13.4009C2.02644 14.2874 2.03094 15.7258 2.91739 16.6062L4.00032 17.6892C4.84927 18.5411 5.31575 19.6706 5.31575 20.872V22.4184C5.31575 23.6678 6.33119 24.6848 7.58212 24.6848H9.12253C10.3255 24.6863 11.4549 25.1527 12.3053 26.0002L13.3868 27.0786C13.3958 27.0891 13.4063 27.0996 13.4168 27.1116ZM14.9972 30.0002C13.8468 30.0002 12.6963 29.5652 11.8159 28.6923C11.8039 28.6803 11.7919 28.6683 11.7799 28.6548L10.715 27.5914C10.2905 27.1699 9.72352 26.9359 9.12055 26.9344H7.58164C5.09029 26.9344 3.06541 24.908 3.06541 22.4182V20.8717C3.06541 20.2688 2.82992 19.7033 2.40694 19.2773L1.32851 18.2004C-0.423392 16.4575 -0.444391 13.6197 1.27601 11.8498C1.28951 11.8363 1.30301 11.8228 1.31651 11.8093L2.40844 10.7143C2.82992 10.2899 3.06541 9.72139 3.06541 9.11993V7.58252C3.06541 5.09266 5.09029 3.06628 7.58014 3.06478H9.12505C9.72652 3.06478 10.2935 2.82929 10.724 2.40482L11.7964 1.32938C13.5498 -0.436017 16.4161 -0.445016 18.1845 1.31288L19.281 2.40932C19.7054 2.83079 20.2724 3.06478 20.8754 3.06478H22.4173C24.9086 3.06478 26.935 5.09116 26.935 7.58252V9.12293C26.935 9.72439 27.169 10.2929 27.5935 10.7203L28.6704 11.7988C29.5239 12.6462 29.9978 13.7787 30.0023 14.9861C30.0068 16.1935 29.5404 17.329 28.6899 18.1854L27.5905 19.2818C27.169 19.7063 26.935 20.2718 26.935 20.8747V22.4182C26.935 24.908 24.9086 26.9344 22.4188 26.9344H20.8724C20.2784 26.9344 19.6979 27.1744 19.2765 27.5929L18.1995 28.6698C17.3191 29.5562 16.1581 30.0002 14.9972 30.0002Z" fill="currentColor"/>
</g>
<path fill-rule="evenodd" clip-rule="evenodd" d="M11.145 19.9811C10.857 19.9811 10.569 19.8716 10.3501 19.6511C9.91058 19.2116 9.91058 18.5006 10.3501 18.0612L18.0596 10.3501C18.4991 9.91064 19.2115 9.91064 19.651 10.3501C20.0905 10.7896 20.0905 11.502 19.651 11.9415L11.94 19.6511C11.721 19.8716 11.433 19.9811 11.145 19.9811Z" fill="currentColor"/>
<path fill-rule="evenodd" clip-rule="evenodd" d="M18.7544 20.2476C17.925 20.2476 17.247 19.5772 17.247 18.7477C17.247 17.9183 17.9115 17.2478 18.7409 17.2478H18.7544C19.5839 17.2478 20.2543 17.9183 20.2543 18.7477C20.2543 19.5772 19.5839 20.2476 18.7544 20.2476Z" fill="currentColor"/>
<path fill-rule="evenodd" clip-rule="evenodd" d="M11.2548 12.748C10.4254 12.748 9.74744 12.0775 9.74744 11.2481C9.74744 10.4186 10.4119 9.74817 11.2413 9.74817H11.2548C12.0843 9.74817 12.7548 10.4186 12.7548 11.2481C12.7548 12.0775 12.0843 12.748 11.2548 12.748Z" fill="currentColor"/>
</svg>
