<svg width="31" height="30" viewBox="0 0 31 30" fill="none" xmlns="http://www.w3.org/2000/svg">
<path d="M1.5 24.3333V15C1.5 11.287 2.975 7.72602 5.60051 5.10051C8.22602 2.475 11.787 1 15.5 1C19.213 1 22.774 2.475 25.3995 5.10051C28.025 7.72602 29.5 11.287 29.5 15V24.3333" stroke="currentColor" stroke-width="2" stroke-linecap="round" stroke-linejoin="round"/>
<path d="M29.5 25.8889C29.5 26.714 29.1722 27.5053 28.5888 28.0888C28.0053 28.6722 27.214 29 26.3889 29H24.8333C24.0082 29 23.2169 28.6722 22.6335 28.0888C22.05 27.5053 21.7222 26.714 21.7222 25.8889V21.2222C21.7222 20.3971 22.05 19.6058 22.6335 19.0223C23.2169 18.4389 24.0082 18.1111 24.8333 18.1111H29.5V25.8889ZM1.5 25.8889C1.5 26.714 1.82778 27.5053 2.41122 28.0888C2.99467 28.6722 3.78599 29 4.61111 29H6.16667C6.99179 29 7.78311 28.6722 8.36656 28.0888C8.95 27.5053 9.27778 26.714 9.27778 25.8889V21.2222C9.27778 20.3971 8.95 19.6058 8.36656 19.0223C7.78311 18.4389 6.99179 18.1111 6.16667 18.1111H1.5V25.8889Z" stroke="currentColor" stroke-width="2" stroke-linecap="round" stroke-linejoin="round"/>
</svg>
