<svg width="22" height="22" viewBox="0 0 22 22" fill="none" xmlns="http://www.w3.org/2000/svg">
<path d="M22 11.2532C22 10.5054 21.9382 9.75367 21.8062 9.01807H11.2227V13.2538H17.2834C17.0319 14.6199 16.2238 15.8284 15.0405 16.5963V19.3447H18.6563C20.7796 17.4289 22 14.5997 22 11.2532Z" fill="#4285F4"/>
<path d="M11.2223 22.0002C14.2485 22.0002 16.8006 21.0262 18.6601 19.3448L15.0442 16.5964C14.0382 17.2674 12.7395 17.6473 11.2264 17.6473C8.29912 17.6473 5.81712 15.7113 4.92657 13.1084H1.19531V15.9417C3.10011 19.656 6.97979 22.0002 11.2223 22.0002V22.0002Z" fill="#34A853"/>
<path d="M4.92072 13.1082C4.4507 11.7421 4.4507 10.2629 4.92072 8.89674V6.06348H1.19359C-0.397863 9.17158 -0.397863 12.8334 1.19359 15.9415L4.92072 13.1082V13.1082Z" fill="#FBBC04"/>
<path d="M11.2223 4.35371C12.822 4.32946 14.3681 4.91955 15.5266 6.00274L18.7301 2.8623C16.7017 0.995012 14.0094 -0.0315928 11.2223 0.000741252C6.97978 0.000741252 3.10011 2.34496 1.19531 6.06337L4.92244 8.89663C5.80887 6.28971 8.295 4.35371 11.2223 4.35371V4.35371Z" fill="#EA4335"/>
</svg>
